<svg version="1.0" xmlns="http://www.w3.org/2000/svg" width="200" height="200" viewBox="0 0 300 200" preserveAspectRatio="xMidYMid meet">
  <g transform="translate(-150,300) scale(0.2,-0.2)" fill="#3b82f6" stroke="none">
    <path d="M1151 1498 c-59 -30 -81 -74 -81 -156 0 -106 51 -225 154 -354 49 -61 139 -138 161 -138 23 0 29 22 9 33 -70 39 -194 192 -245 302 -42 89 -51 193 -20 241 42 68 119 66 231 -7 57 -37 90 -44 90 -21 0 14 -61 58 -119 87 -74 37 -127 41 -180 13z"/>
    <path d="M1689 1510 c-15 -4 -55 -23 -90 -41 -80 -42 -263 -221 -302 -295 -32 -61 -39 -117 -16 -122 11 -2 19 10 28 40 20 68 66 131 165 225 134 129 238 179 309 149 67 -28 92 -107 63 -201 -14 -43 -14 -52 -1 -64 13 -13 17 -10 31 25 47 112 19 229 -66 272 -46 23 -76 26 -121 12z"/>
    <path d="M1526 1264 c-56 -20 -110 -64 -97 -77 7 -7 30 0 75 23 54 27 73 32 113 28 63 -6 99 -24 213 -108 109 -81 163 -110 220 -117 35 -5 40 -3 40 15 0 15 -9 21 -37 27 -52 10 -94 33 -208 116 -55 39 -118 80 -140 90 -48 22 -125 23 -179 3z"/>
    <path d="M1593 1199 c-9 -9 0 -23 36 -55 60 -54 140 -169 188 -270 31 -64 37 -89 37 -144 1 -78 -18 -114 -70 -136 -54 -22 -105 -5 -212 72 -21 15 -25 16 -38 2 -14 -13 -8 -20 53 -61 40 -28 89 -51 120 -58 47 -11 55 -10 100 12 69 34 96 89 90 182 -4 56 -13 86 -51 162 -53 107 -148 240 -198 279 -40 30 -40 30 -55 15z"/>
    <path d="M890 1026 c0 -20 6 -24 45 -29 59 -9 100 -31 215 -116 145 -108 235 -133 327 -91 56 25 99 68 84 83 -8 8 -23 2 -57 -23 -95 -68 -170 -51 -346 76 -101 72 -172 109 -230 117 -35 5 -38 4 -38 -17z"/>
    <path d="M1676 1002 c-2 -4 -7 -22 -11 -39 -10 -47 -93 -169 -156 -230 -151 -144 -283 -189 -349 -118 -32 34 -40 132 -16 189 15 36 15 40 -1 52 -16 11 -20 9 -30 -10 -18 -34 -30 -124 -23 -174 13 -87 78 -136 171 -129 88 7 199 75 301 185 76 81 148 206 148 257 0 14 -27 28 -34 17z"/>
  </g>
</svg>
