<svg xmlns="http://www.w3.org/2000/svg" xmlns:xlink="http://www.w3.org/1999/xlink" version="1.1" id="Layer_1" x="0px" y="0px" enable-background="new 0 0 1024 1024" xml:space="preserve" viewBox="336.51 304.58 295.03 417.42">
<path fill="#000000" opacity="1.000000" stroke="none" d=" M595.335510,480.341614   C589.163879,486.215424 583.149963,491.744629 577.368164,497.506714   C574.674133,500.191559 572.712952,500.380920 569.954224,497.494781   C564.201965,491.476990 558.149109,485.745148 552.183105,479.933533   C547.481323,475.353516 547.111267,474.117706 550.952454,468.923279   C558.281494,459.012115 565.739685,449.188354 573.408203,439.538055   C586.127991,423.531006 590.043762,405.610748 584.792664,385.996490   C579.106445,364.756805 560.670776,349.363129 540.475159,347.282104   C512.409790,344.390137 492.868347,360.919464 484.396790,378.490906   C473.191620,401.732147 476.428589,423.960358 491.247589,444.415802   C504.788391,463.106903 521.964539,478.605011 538.057373,495.005554   C554.745117,512.012512 572.080627,528.381897 588.915283,545.247192   C603.410767,559.769043 615.753845,575.856812 621.991699,595.776489   C639.653503,652.176880 607.888550,711.038574 546.884460,720.860840   C509.795685,726.832397 472.713470,708.979675 451.924500,674.864624   C448.637054,669.469910 445.737305,663.811951 443.011139,658.107117   C433.570160,638.350708 419.031799,623.635681 400.102966,612.735901   C384.348969,603.664307 369.158966,593.655762 357.354706,579.415833   C327.097443,542.915161 328.065247,478.913727 371.603241,445.778961   C379.160065,440.027802 386.572815,434.077850 394.274750,428.528717   C412.440674,415.440338 425.504211,398.298065 435.248993,378.333801   C442.048553,364.403412 449.148468,350.608337 459.433929,338.797943   C479.531525,315.720764 504.622986,303.649353 535.501892,304.638702   C569.068237,305.714111 595.933167,319.668762 614.847717,347.540924   C638.478882,382.363159 636.769775,429.119232 611.273376,462.636566   C606.520142,468.885071 601.307800,474.715088 595.335510,480.341614  M493.764343,660.726501   C507.326782,676.461548 524.273438,682.660645 544.735352,678.593445   C573.488831,672.878113 593.023743,641.324890 585.525208,613.116211   C581.900818,599.481384 573.870300,588.580627 564.742310,578.284790   C551.899292,563.798767 537.203613,551.186768 523.510071,537.560059   C506.036530,520.171753 488.565521,502.775452 470.790771,485.697571   C461.978058,477.230438 452.249542,469.588623 439.741791,467.543335   C407.663666,462.297791 378.748962,487.390533 378.981018,519.923889   C379.155212,544.342346 393.690399,564.138062 416.388367,569.954285   C433.092346,574.234558 448.658661,570.720276 463.099457,561.499878   C472.317139,555.614380 479.755066,547.713196 487.637329,540.307495   C492.553619,535.688477 493.076538,535.624634 497.729553,540.207703   C503.188690,545.584900 508.612640,550.999390 513.972107,556.475769   C519.613953,562.240662 519.654114,563.678040 513.947205,569.655884   C508.083282,575.798157 501.712555,581.482056 496.127228,587.860107   C477.107422,609.579346 476.140656,637.661194 493.764343,660.726501  z"/>
</svg>